<svg width="4096" height="2654" viewBox="0 0 4096 2654" fill="none" xmlns="http://www.w3.org/2000/svg">
<path d="M480 2073.44H320C252.105 2073.44 186.99 2055.96 138.981 2024.85C90.9714 1993.75 64 1951.56 64 1907.56V1575.81C64 1509.82 104.457 1446.54 176.471 1399.88C248.485 1353.21 346.157 1327 448 1327H1088C1189.84 1327 1287.52 1353.21 1359.53 1399.88C1431.54 1446.54 1472 1509.82 1472 1575.81V1907.56C1472 1951.56 1445.03 1993.75 1397.02 2024.85C1349.01 2055.96 1283.9 2073.44 1216 2073.44H480Z" fill="#37B678"/>
<path d="M960 1133.48V1325.44C960 1358.44 939.772 1390.08 903.765 1413.41C867.758 1436.74 818.922 1449.85 768 1449.85C717.078 1449.85 668.242 1436.74 632.235 1413.41C596.228 1390.08 576 1358.44 576 1325.44V1141.69L960 1133.48Z" fill="#FFDAA7"/>
<path d="M1152 840.528C1152 849.651 1150.72 859.603 1149.44 868.726L1145.6 886.143V887.802L1132.8 964.934L1117.44 1054.51C1112.41 1083.57 1096.94 1111.46 1072.27 1135.95C1047.59 1160.43 1014.4 1180.83 975.36 1195.5L862.72 1236.97C833.833 1247.57 801.199 1253.14 768 1253.14C734.801 1253.14 702.168 1247.57 673.28 1236.97L560.64 1195.5C521.599 1180.83 488.409 1160.43 463.735 1135.95C439.06 1111.46 423.588 1083.57 418.56 1054.51L409.6 999.768L395.52 918.489L390.4 888.631V886.973L386.56 868.726C380.81 835.143 385.681 801.153 400.874 768.83C416.068 736.506 441.265 706.527 474.93 680.722C508.595 654.917 550.021 633.827 596.681 618.738C643.34 603.649 694.255 594.878 746.319 592.96C798.383 591.042 850.505 596.017 899.503 607.582C948.501 619.147 993.35 637.059 1031.31 660.225C1069.27 683.392 1099.55 711.327 1120.3 742.326C1141.05 773.325 1151.84 806.739 1152 840.528Z" fill="#FFDAA7"/>
<path d="M3040 2073.61H2880C2812.1 2073.61 2746.99 2056.13 2698.98 2025.03C2650.97 1993.92 2624 1951.73 2624 1907.74V1575.99C2624 1510 2664.46 1446.71 2736.47 1400.05C2808.48 1353.39 2906.16 1327.17 3008 1327.17H3648C3749.84 1327.17 3847.52 1353.39 3919.53 1400.05C3991.54 1446.71 4032 1510 4032 1575.99V1907.74C4032 1951.73 4005.03 1993.92 3957.02 2025.03C3909.01 2056.13 3843.9 2073.61 3776 2073.61H3040Z" fill="#FDD402"/>
<path d="M3520 1127.6V1325.62C3520 1358.61 3499.77 1390.26 3463.76 1413.59C3427.76 1436.92 3378.92 1450.02 3328 1450.02C3277.08 1450.02 3228.24 1436.92 3192.24 1413.59C3156.23 1390.26 3136 1358.61 3136 1325.62V1133.65L3520 1127.6Z" fill="#FFDAA7"/>
<path d="M3535.36 1195.33L3422.59 1237.08C3393.78 1247.75 3361.18 1253.36 3328 1253.36C3294.82 1253.36 3262.22 1247.75 3233.41 1237.08L3120.64 1195.33C3081.52 1180.84 3048.23 1160.57 3023.49 1136.17C2998.76 1111.77 2983.27 1083.92 2978.29 1054.9L2946.4 868.914C2940.44 834.139 2945.86 798.941 2962.32 765.617C2978.77 732.293 3005.9 701.594 3041.91 675.523C3077.92 649.452 3122.02 628.596 3171.31 614.317C3220.61 600.038 3274 592.658 3328 592.657C3382 592.657 3435.39 600.038 3484.69 614.316C3533.99 628.595 3578.08 649.451 3614.09 675.522C3650.11 701.593 3677.23 732.293 3693.69 765.617C3710.14 798.941 3715.57 834.139 3709.61 868.914L3677.71 1054.9C3672.74 1083.92 3657.25 1111.77 3632.51 1136.17C3607.77 1160.57 3574.48 1180.84 3535.36 1195.33Z" fill="#FFDAA7"/>
<path d="M3218.46 2239.31H877.542V1947.92C877.543 1871.23 917.905 1796.83 991.965 1737.01C1066.03 1677.19 1169.36 1635.52 1284.9 1618.88L2048 1509L2811.1 1618.88C2926.64 1635.52 3029.97 1677.19 3104.03 1737.01C3178.09 1796.83 3218.46 1871.23 3218.46 1947.92L3218.46 2239.31Z" fill="#E5303E"/>
<path d="M1787.9 1396.65H2308.1V1509C2308.1 1531.14 2301.37 1553.05 2288.3 1573.5C2275.23 1593.95 2256.07 1612.52 2231.92 1628.17C2207.77 1643.82 2179.09 1656.24 2147.54 1664.71C2115.98 1673.18 2082.16 1677.54 2048 1677.54C1979.02 1677.54 1912.86 1659.78 1864.08 1628.18C1815.31 1596.57 1787.9 1553.7 1787.9 1509.01V1396.65Z" fill="#FFDAA7"/>
<path d="M2612.48 862.917C2612.44 876.503 2611.16 890.074 2608.64 903.561L2607.36 911.855L2595.84 974.887L2581.76 1056.17L2561.28 1176.43C2553.91 1219.03 2531.18 1259.92 2494.94 1295.79C2458.7 1331.66 2409.96 1361.52 2352.64 1382.94L2174.72 1448.46C2136.12 1462.73 2092.44 1470.23 2048 1470.23C2003.56 1470.23 1959.88 1462.73 1921.28 1448.46L1743.36 1382.94C1686.04 1361.52 1637.3 1331.66 1601.06 1295.79C1564.82 1259.92 1542.09 1219.03 1534.72 1176.43L1506.56 1010.55L1492.48 931.76L1487.36 905.22V903.561C1478.98 854.191 1486.22 804.233 1508.63 756.736C1531.04 709.238 1568.15 665.197 1617.69 627.3C1667.24 589.402 1728.18 558.443 1796.8 536.312C1865.43 514.18 1940.29 501.341 2016.82 498.576C2093.36 495.811 2169.96 503.18 2241.95 520.232C2313.95 537.283 2379.82 563.661 2435.56 597.755C2491.3 631.849 2535.74 672.945 2566.15 718.534C2596.57 764.123 2612.33 813.25 2612.48 862.917Z" fill="#FFDAA7"/>
<path d="M2563.84 1158.64H2401.28C2340.05 1158.63 2279.63 1149.55 2224.64 1132.1C2169.66 1114.64 2109.23 1105.56 2048 1105.56C1986.77 1105.56 1926.34 1114.64 1871.36 1132.1C1816.37 1149.55 1755.95 1158.63 1694.72 1158.64H1532.16V1159.01L1534.72 1176.42C1542.09 1219.03 1564.82 1259.92 1601.06 1295.79C1637.3 1331.66 1686.04 1361.52 1743.36 1382.94L1921.28 1448.46C1959.88 1462.73 2003.56 1470.23 2048 1470.23C2092.44 1470.23 2136.12 1462.73 2174.72 1448.46L2352.64 1382.94C2409.96 1361.52 2458.7 1331.66 2494.94 1295.79C2531.18 1259.92 2553.91 1219.03 2561.28 1176.42L2563.84 1159.01" fill="#8B8891"/>
<path d="M3904 580.562C3904 536.57 3877.03 494.379 3829.02 463.271C3781.01 432.164 3715.9 414.688 3648 414.688C3580.1 414.688 3514.99 432.164 3466.98 463.271C3418.97 494.379 3392 536.57 3392 580.562C3392.42 586.045 3393.27 591.511 3394.55 596.939C3335.77 589.62 3275.15 591.419 3217.65 602.186C3160.15 612.954 3107.4 632.385 3063.71 658.892C3020.02 685.399 2986.63 718.229 2966.27 754.698C2945.91 791.167 2939.15 830.241 2946.56 868.725L2955.52 918.487L2955.27 918.791C2998.16 913.85 3042.97 907.052 3089.68 899.023C3230.88 873.546 3365.95 835.505 3491.02 785.986C3551.89 825.161 3621.65 858.074 3697.88 883.584C3700.54 884.661 3703.43 885.493 3706.45 886.055L3706.88 886.137L3709.44 868.721C3710.72 859.597 3712 849.645 3712 840.522C3711.96 807.418 3701.53 774.665 3681.36 744.25C3742.82 739.13 3799.3 719.697 3840.26 689.577C3881.23 659.458 3903.88 620.709 3904 580.562ZM1146.46 885.882C1143.43 885.32 1140.55 884.489 1137.88 883.411C1061.65 857.903 991.887 824.992 931.012 785.819C805.94 835.335 670.877 873.375 529.679 898.854C482.968 906.884 438.159 913.678 395.265 918.62L395.521 918.489L386.561 868.726C380.808 835.142 385.676 801.15 400.868 768.825C416.059 736.5 441.256 706.519 474.921 680.712C508.586 654.905 550.013 633.813 596.675 618.723C643.336 603.633 694.253 594.862 746.319 592.944C798.385 591.026 850.509 596.001 899.509 607.567C948.509 619.133 993.359 637.046 1031.32 660.214C1069.28 683.383 1099.56 711.32 1120.31 742.321C1141.06 773.322 1151.84 806.737 1152 840.528C1152 849.651 1150.72 859.603 1149.44 868.726L1146.88 886.143M2595.84 974.886C2538.24 967.421 2466.56 959.127 2406.4 947.516C2199.23 910.159 2001.06 854.333 1817.6 781.641C1728.15 839.417 1625.38 887.823 1512.96 925.123C1511.68 925.123 1504 928.441 1492.48 931.758L1487.36 903.559C1478.98 854.188 1486.22 804.229 1508.62 756.729C1531.03 709.23 1568.14 665.186 1617.68 627.287C1667.23 589.388 1728.18 558.427 1796.8 536.295C1865.42 514.163 1940.29 501.322 2016.82 498.558C2093.36 495.793 2169.96 503.163 2241.96 520.216C2313.96 537.269 2379.83 563.649 2435.57 597.745C2491.31 631.841 2535.75 672.939 2566.16 718.531C2596.58 764.122 2612.34 813.251 2612.48 862.92C2612.44 876.504 2611.16 890.074 2608.64 903.559L2595.84 974.886Z" fill="#58565D"/>
<path d="M3648 1285.53H3584V1223.25C3627.18 1205.12 3663.66 1181.04 3690.85 1152.74C3718.04 1124.43 3735.27 1092.59 3741.31 1059.48L3773.25 873.475C3778.24 840.034 3774.18 806.285 3761.26 773.747C3814.04 760.876 3860.61 739.18 3896.25 710.864C3931.88 682.549 3955.31 648.623 3964.14 612.538C3972.98 576.453 3966.91 539.495 3946.56 505.423C3926.2 471.35 3892.28 441.378 3848.25 418.554C3804.22 395.73 3751.64 380.868 3695.87 375.48C3640.1 370.092 3583.12 374.369 3530.73 387.877C3478.34 401.385 3432.4 423.642 3397.59 452.385C3362.78 481.127 3340.33 515.33 3332.54 551.516C3331.01 551.506 3329.54 551.203 3328 551.203C3265 551.198 3202.71 559.804 3145.19 576.458C3087.67 593.113 3036.22 617.442 2994.2 647.856C2952.18 678.27 2920.54 714.085 2901.33 752.962C2882.13 791.84 2875.8 832.905 2882.75 873.476L2914.69 1059.48C2920.73 1092.59 2937.96 1124.42 2965.15 1152.73C2992.34 1181.03 3028.82 1205.1 3072 1223.23V1285.53H3008C2898.85 1285.76 2793.59 1311.84 2712.07 1358.88C2630.55 1405.91 2578.4 1470.65 2565.45 1540.87L2371.11 1512.71C2371.15 1511.42 2371.81 1509.94 2371.81 1508.67V1423.22L2384.06 1418.69C2450.16 1394.13 2506.41 1359.83 2548.25 1318.56C2590.08 1277.3 2616.34 1230.23 2624.87 1181.17L2671.69 908.182C2681.42 851.351 2672.55 793.829 2645.64 739.372C2618.74 684.914 2574.41 634.745 2515.55 592.141C2456.7 549.537 2384.63 515.456 2304.07 492.123C2223.5 468.79 2136.25 456.73 2048 456.73C1959.75 456.73 1872.5 468.79 1791.93 492.123C1711.37 515.456 1639.3 549.537 1580.44 592.141C1521.59 634.745 1477.26 684.914 1450.35 739.372C1423.45 793.829 1414.58 851.351 1424.31 908.182L1471.12 1181.17C1479.66 1230.23 1505.91 1277.3 1547.75 1318.56C1589.59 1359.83 1645.83 1394.13 1711.94 1418.69L1724.19 1423.22V1508.67C1724.19 1509.94 1724.84 1511.42 1724.88 1512.7L1530.54 1540.85C1517.59 1470.63 1465.43 1405.91 1383.92 1358.87C1302.4 1311.84 1197.15 1285.76 1088 1285.53H1024V1223.03C1067.19 1204.92 1103.68 1180.86 1130.87 1152.56C1158.06 1124.26 1175.28 1092.42 1181.31 1059.32L1213.25 873.314C1220.2 832.741 1213.87 791.675 1194.67 752.796C1175.46 713.916 1143.82 678.099 1101.8 647.683C1059.78 617.266 1008.33 592.934 950.813 576.276C893.296 559.617 831.003 551.007 768.001 551.007C705 551.007 642.706 559.617 585.189 576.276C527.672 592.934 476.224 617.266 434.206 647.683C392.187 678.099 360.542 713.916 341.337 752.796C322.133 791.675 315.8 832.741 322.753 873.314L354.688 1059.32C360.718 1092.48 377.985 1124.38 405.254 1152.72C432.524 1181.05 469.122 1205.14 512.43 1223.25L512 1224.62V1285.53H448C329.227 1285.62 215.36 1316.24 131.375 1370.66C47.3901 1425.07 0.143962 1498.85 0 1575.81L0 1907.56C0.0891132 1962.54 33.8319 2015.24 93.8242 2054.11C153.817 2092.98 235.158 2114.85 320 2114.91H814.062V2239.31C814.057 2244.76 815.709 2250.15 818.924 2255.19C822.138 2260.22 826.852 2264.79 832.796 2268.64C838.74 2272.49 845.798 2275.55 853.565 2277.63C861.332 2279.71 869.656 2280.78 878.062 2280.78H3217.94C3226.34 2280.78 3234.67 2279.71 3242.44 2277.63C3250.2 2275.55 3257.26 2272.49 3263.2 2268.64C3269.15 2264.79 3273.86 2260.22 3277.08 2255.19C3280.29 2250.15 3281.94 2244.76 3281.94 2239.31V2114.91H3776C3860.84 2114.85 3942.18 2092.98 4002.18 2054.11C4062.17 2015.24 4095.91 1962.54 4096 1907.56V1575.81C4095.86 1498.85 4048.61 1425.07 3964.62 1370.66C3880.64 1316.24 3766.77 1285.62 3648 1285.53ZM3648 456.156C3698.9 456.192 3747.71 469.311 3783.7 492.634C3819.7 515.957 3839.94 547.579 3840 580.563C3839.62 605.692 3827.38 630.144 3804.92 650.63C3782.46 671.116 3750.85 686.654 3714.35 695.153C3658.52 631.857 3566.62 585.268 3458.37 565.391C3463.98 535.331 3486.35 507.637 3521.28 487.52C3556.2 467.402 3601.27 456.248 3648 456.156ZM3010.66 868.166L3010 864.323C3000.26 810.042 3024.05 755.469 3076.16 712.506C3128.28 669.543 3204.51 641.678 3288.21 634.989C3371.91 628.3 3456.3 643.329 3522.97 676.798C3589.64 710.267 3633.18 759.461 3644.09 813.648C3605.51 796.631 3569.28 777.474 3535.81 756.396C3525.62 749.988 3512.45 745.939 3498.35 744.877C3484.25 743.816 3470 745.8 3457.81 750.524C3338.06 798.084 3208.64 834.574 3073.31 858.934C3051.53 862.669 3031.56 865.042 3010.66 868.166ZM3041.94 1050.33L3024.9 951.028C3051.92 947.16 3078.02 943.936 3106.76 939.002C3237.99 915.491 3364.12 881.367 3482.19 837.436C3529.97 864.942 3582.35 888.896 3638.35 908.852L3614.06 1050.33C3610.16 1072.84 3598.13 1094.44 3578.94 1113.38C3559.76 1132.32 3533.95 1148.07 3503.63 1159.34L3390.81 1201.1C3371.67 1208.14 3350.02 1211.85 3328 1211.85C3305.98 1211.85 3284.34 1208.14 3265.19 1201.1L3152.38 1159.34C3122.05 1148.07 3096.25 1132.32 3077.06 1113.38C3057.87 1094.44 3045.84 1072.84 3041.94 1050.33ZM3456 1272.48V1325.62C3456 1347.62 3442.51 1368.72 3418.51 1384.27C3394.51 1399.82 3361.95 1408.56 3328 1408.56C3294.05 1408.56 3261.49 1399.82 3237.49 1384.27C3213.49 1368.72 3200 1347.62 3200 1325.62V1272.48L3201.69 1273.1C3240.18 1287.3 3283.71 1294.76 3328 1294.76C3372.29 1294.76 3415.82 1287.3 3454.31 1273.1L3456 1272.48ZM1675.81 647.463C1746.41 596.353 1840.25 561.098 1943.78 546.785C2047.31 532.473 2155.18 539.844 2251.82 567.834C2348.47 595.823 2428.89 642.985 2481.48 702.513C2534.08 762.041 2556.12 830.856 2544.44 899.029L2539.86 925.722C2501.41 920.143 2463.62 915.198 2423.44 907.899C2222.04 871.049 2029.26 816.738 1850.31 746.438C1838.17 741.648 1823.91 739.624 1809.79 740.688C1795.66 741.751 1782.5 745.842 1772.38 752.309C1705.73 795.051 1631.53 832.538 1551.3 863.99C1550.12 784.329 1594.47 707.201 1675.81 647.463ZM1561.14 954.895C1657.14 921.958 1746.21 881.175 1826.19 833.547C2003.07 899.983 2192.11 951.791 2388.88 987.759C2436.06 996.329 2480.71 1002.36 2525.63 1008.71L2507.03 1117.19H2401.25C2349.56 1117.19 2298.56 1109.48 2252.19 1094.67C2188.49 1074.59 2118.56 1064.17 2047.72 1064.2C1976.88 1064.23 1906.98 1074.7 1843.31 1094.84C1797.09 1109.56 1746.26 1117.2 1694.75 1117.19H1588.97L1561.14 954.895ZM1608.52 1200.12H1694.75C1765.53 1200.17 1835.39 1189.7 1898.94 1169.51C1945.28 1154.85 1996.16 1147.22 2047.72 1147.19C2099.29 1147.16 2150.19 1154.74 2196.56 1169.34C2260.25 1189.63 2330.28 1200.16 2401.25 1200.12H2487.49C2476.53 1230.63 2456.08 1259.36 2427.37 1284.56C2398.67 1309.76 2362.32 1330.9 2320.56 1346.68L2143.25 1412.36C2114.22 1423.06 2081.39 1428.68 2047.99 1428.66C2014.59 1428.65 1981.77 1423 1952.75 1412.28L1775.44 1346.68C1733.68 1330.9 1697.34 1309.77 1668.63 1284.56C1639.93 1259.36 1619.48 1230.63 1608.52 1200.12ZM2243.81 1470.64V1508.67C2243.66 1517.96 2242 1527.22 2238.88 1536.29C2229.56 1564.6 2205.54 1589.99 2170.82 1608.21C2136.1 1626.43 2092.79 1636.38 2048.11 1636.4C2003.43 1636.42 1960.09 1626.5 1925.33 1608.31C1890.57 1590.13 1866.5 1564.76 1857.13 1536.45C1854.01 1527.33 1852.36 1518.02 1852.19 1508.67V1470.58L1889.25 1484.29C1937.61 1502.16 1992.32 1511.57 2047.99 1511.59C2103.66 1511.6 2158.37 1502.22 2206.75 1484.37L2243.81 1470.64ZM450.662 868.005L450.006 864.162C440.366 809.918 464.196 755.402 516.306 712.49C568.416 669.578 644.584 641.746 728.22 635.056C811.855 628.366 896.183 643.36 962.835 676.773C1029.49 710.185 1073.06 759.309 1084.07 813.444C1045.5 796.425 1009.28 777.271 975.813 756.197C965.657 749.751 952.478 745.679 938.355 744.623C924.232 743.567 909.969 745.587 897.814 750.365C778.066 797.931 648.648 834.421 513.313 858.776C491.532 862.507 471.569 864.881 450.662 868.005ZM481.943 1050.16L464.896 950.865C491.919 946.998 518.016 943.773 546.756 938.839C678.003 915.326 804.161 881.202 922.255 837.273C969.974 864.795 1022.35 888.729 1078.37 908.618L1054.07 1050.17C1050.17 1072.68 1038.14 1094.27 1018.96 1113.21C999.768 1132.14 973.962 1147.88 943.631 1159.15L830.819 1200.9C811.671 1207.94 790.027 1211.65 768.006 1211.65C745.985 1211.65 724.341 1207.94 705.193 1200.9L592.38 1159.15C562.048 1147.88 536.241 1132.14 517.052 1113.21C497.863 1094.27 485.838 1072.68 481.943 1050.16ZM896 1272.27V1325.46C896 1347.46 882.514 1368.55 858.51 1384.11C834.505 1399.66 801.948 1408.4 768 1408.4C734.052 1408.4 701.495 1399.66 677.49 1384.11C653.486 1368.55 640 1347.46 640 1325.46V1272.27L641.687 1272.9C680.178 1287.1 723.708 1294.56 767.999 1294.56C812.291 1294.56 855.821 1287.1 894.312 1272.9L896 1272.27ZM814.062 1948.22V2031.97H320C269.095 2031.93 220.292 2018.81 184.297 1995.49C148.302 1972.17 128.056 1940.55 128 1907.56V1575.81C128.089 1520.84 161.832 1468.13 221.824 1429.26C281.817 1390.39 363.158 1368.53 448 1368.47H521.836C536.178 1403.68 568.104 1434.83 612.633 1457.06C657.162 1479.28 711.791 1491.34 767.999 1491.34C824.208 1491.34 878.837 1479.28 923.366 1457.06C967.895 1434.83 999.82 1403.68 1014.16 1368.47H1088C1168.15 1368.62 1245.28 1388.3 1304.07 1423.59C1362.86 1458.89 1399.03 1507.22 1405.37 1558.99L1271.31 1578.4C1141.18 1596.69 1024.71 1643.42 941.45 1710.76C858.193 1778.1 813.214 1861.94 814.062 1948.22ZM3153.94 2197.84H942.062V1948.22C941.38 1880.82 976.5 1815.33 1041.53 1762.72C1106.55 1710.11 1197.53 1673.6 1299.18 1659.32L1752.39 1593.72C1777.41 1631.04 1818.71 1662.81 1871.22 1685.13C1923.73 1707.45 1985.16 1719.33 2047.96 1719.33C2110.76 1719.33 2172.19 1707.44 2224.7 1685.13C2277.21 1662.81 2318.51 1631.04 2343.53 1593.72L2797.06 1659.4C2898.66 1673.69 2989.59 1710.2 3054.57 1762.79C3119.55 1815.38 3154.64 1880.85 3153.93 1948.22L3153.94 2197.84ZM3968 1907.56C3967.94 1940.55 3947.7 1972.17 3911.7 1995.49C3875.71 2018.81 3826.9 2031.93 3776 2031.97H3281.94V1948.22C3282.81 1861.97 3237.87 1778.15 3154.65 1710.83C3071.44 1643.51 2955.02 1596.78 2824.94 1578.49L2690.63 1559.02C2696.96 1507.24 2733.12 1458.91 2791.92 1423.61C2850.71 1388.31 2927.84 1368.62 3008 1368.47H3081.76C3096.06 1403.72 3127.98 1434.91 3172.53 1457.17C3217.07 1479.43 3271.75 1491.5 3328 1491.5C3384.25 1491.5 3438.92 1479.43 3483.47 1457.17C3528.02 1434.91 3559.94 1403.72 3574.24 1368.47H3648C3732.84 1368.53 3814.18 1390.39 3874.18 1429.26C3934.17 1468.13 3967.91 1520.84 3968 1575.81V1907.56ZM1972 1316.63H2124C2140.97 1316.63 2157.25 1312.26 2169.25 1304.49C2181.26 1296.71 2188 1286.16 2188 1275.16C2188 1264.17 2181.26 1253.62 2169.25 1245.84C2157.25 1238.06 2140.97 1233.7 2124 1233.7H1972C1955.03 1233.7 1938.75 1238.06 1926.75 1245.84C1914.74 1253.62 1908 1264.17 1908 1275.16C1908 1286.16 1914.74 1296.71 1926.75 1304.49C1938.75 1312.26 1955.03 1316.63 1972 1316.63Z" fill="black"/>
</svg>
